<?xml version="1.0"?><svg width="367" height="372" xmlns="http://www.w3.org/2000/svg" xmlns:xlink="http://www.w3.org/1999/xlink">
 <title>Black bag for shopping. Bolsa negra de compras.</title>
 <defs>
  <linearGradient id="linearGradient4631">
   <stop stop-color="#666666" id="stop4633" offset="0"/>
   <stop stop-color="#4d4d4d" offset="0.435543" id="stop4635"/>
   <stop stop-color="#000000" id="stop4637" offset="1"/>
  </linearGradient>
  <linearGradient gradientTransform="translate(-30.203853,-324.24924)" gradientUnits="userSpaceOnUse" y2="514.40118" x2="564.96411" y1="590.85419" x1="628.05634" id="linearGradient3874" xlink:href="#linearGradient3868"/>
  <linearGradient id="linearGradient3868">
   <stop stop-color="#7b7b7b" id="stop3870" offset="0"/>
   <stop stop-color="#989898" id="stop3872" offset="1"/>
  </linearGradient>
  <radialGradient gradientTransform="matrix(-1.9574015,-1.468051,0.37500009,-0.5,1250.2121,1108.4897)" gradientUnits="userSpaceOnUse" r="160" fy="291.03192" fx="323.46347" cy="291.03192" cx="323.46347" id="radialGradient2996" xlink:href="#linearGradient2990"/>
  <linearGradient id="linearGradient2990">
   <stop stop-color="#0f0f0f" id="stop2992" offset="0"/>
   <stop stop-color="#4f4f4f" id="stop2994" offset="1"/>
  </linearGradient>
  <linearGradient gradientTransform="matrix(0.40249687,-0.02046352,0.02046352,0.40249687,240.78817,324.57647)" gradientUnits="userSpaceOnUse" y2="494.70593" x2="329.36938" y1="428.43924" x1="388.8302" id="linearGradient3801" xlink:href="#linearGradient3795"/>
  <linearGradient id="linearGradient3795">
   <stop stop-color="#171717" id="stop3797" offset="0"/>
   <stop stop-color="#6f6f6f" id="stop3799" offset="1"/>
  </linearGradient>
  <linearGradient gradientTransform="translate(-30.203853,-324.24924)" gradientUnits="userSpaceOnUse" y2="555.00983" x2="401.06918" y1="806.67413" x1="434.9343" id="linearGradient3809" xlink:href="#linearGradient3803"/>
  <linearGradient id="linearGradient3803">
   <stop stop-color="#171717" id="stop3805" offset="0"/>
   <stop stop-color="#474747" offset="0.716771" id="stop3811"/>
   <stop stop-color="#7f7f7f" id="stop3807" offset="1"/>
  </linearGradient>
  <linearGradient gradientTransform="translate(-30.203853,-324.24924)" gradientUnits="userSpaceOnUse" y2="562.69043" x2="450.41876" y1="530.97083" x1="710.51978" id="linearGradient3849" xlink:href="#linearGradient3843"/>
  <linearGradient id="linearGradient3843">
   <stop stop-color="#171717" id="stop3845" offset="0"/>
   <stop stop-color="#9f9f9f" offset="0.435543" id="stop3884"/>
   <stop stop-color="#3f3f3f" id="stop3847" offset="1"/>
  </linearGradient>
  <linearGradient xlink:href="#linearGradient4010" id="linearGradient3928" gradientUnits="userSpaceOnUse" gradientTransform="translate(-235.28439,-382.53829)" x1="609.19568" y1="589.20514" x2="574.7312" y2="547.10547"/>
  <linearGradient id="linearGradient4010">
   <stop stop-color="#5f5f5f" offset="0" id="stop4012"/>
   <stop stop-color="#a2a2a2" offset="1" id="stop4014"/>
  </linearGradient>
  <linearGradient xlink:href="#linearGradient4010" id="linearGradient4058" gradientUnits="userSpaceOnUse" gradientTransform="translate(-30.203853,-324.24924)" x1="609.19568" y1="589.20514" x2="574.7312" y2="547.10547"/>
  <linearGradient y2="532.836" x2="756.83362" y1="538.13611" x1="720.17468" gradientTransform="translate(-393.33598,-484.36217)" gradientUnits="userSpaceOnUse" id="linearGradient3174" xlink:href="#linearGradient3176"/>
  <linearGradient id="linearGradient3176">
   <stop stop-color="#ff5555" offset="0" id="stop3178"/>
   <stop stop-color="#fc6464" id="stop3180" offset="0.435543"/>
   <stop stop-color="#aa0000" offset="1" id="stop3182"/>
  </linearGradient>
  <linearGradient xlink:href="#linearGradient4631" id="linearGradient4610" gradientUnits="userSpaceOnUse" gradientTransform="translate(-30.092594,-324.47302)" x1="720.17468" y1="538.13611" x2="756.83362" y2="532.836"/>
  <linearGradient y2="0.220619" x2="0.119401" y1="1.003577" x1="0.971581" id="linearGradient3128" xlink:href="#linearGradient3868"/>
  <radialGradient r="160" fy="291.03192" fx="323.46347" cy="291.03192" cx="323.46347" gradientTransform="matrix(-1.9574015,-1.468051,0.37500009,-0.5,1250.2121,1108.4897)" gradientUnits="userSpaceOnUse" id="radialGradient3131" xlink:href="#linearGradient2990"/>
  <linearGradient y2="0.021733" x2="1.012901" y1="0.578806" x1="0.005016" id="linearGradient3134" xlink:href="#linearGradient4631"/>
  <linearGradient y2="0.730904" x2="0.312803" y1="0.055301" x1="0.811972" id="linearGradient3137" xlink:href="#linearGradient3795"/>
  <linearGradient y2="-0.003319" x2="0.03213" y1="0.911586" x1="0.659925" id="linearGradient3141" xlink:href="#linearGradient3803"/>
  <linearGradient y2="0.663309" x2="0.140625" y1="0.127303" x1="0.872768" id="linearGradient3144" xlink:href="#linearGradient3843"/>
  <linearGradient y2="0.531857" x2="0.515569" y1="0.974314" x1="0.993291" id="linearGradient3147" xlink:href="#linearGradient4010"/>
  <symbol id="svg_93" height="406.813" width="370.611">
   <g>
    <title>Layer 1</title>
    <path d="m176.311005,90.535873c-2.729004,-1.117012 -3.572006,5.791 -3.958008,8.292c-0.571991,3.706985 1.081009,6.046989 1.132004,9.422989c0.313995,-0.063004 0.628006,-0.125 0.942001,-0.188004c-1.350006,-5.984001 1.242004,-11.636986 1.884003,-17.526985" id="svg_92" fill="#d1c5be"/>
    <path d="m174.427002,108.062859c-0.977005,0.862 -0.011002,1.911003 1.507004,3.014999c-0.621002,-0.804001 -1.01001,-2.020996 -1.507004,-3.014999" id="svg_91" fill="#d1c5be"/>
    <path d="m369.678009,267.127991c-1.140015,-32.584991 -0.563019,-65.913986 -12.062012,-96.870987c-0.376984,0.250992 -0.755005,0.501999 -1.131989,0.752991c-3.007019,-9.927994 -8.001007,-17.845993 -17.526001,-22.61499c-3.911011,-1.958008 -7.149994,-2.833008 -11.309021,-2.261002c-2.109985,0.289993 -6.386993,2.895996 -8.103973,2.259995c-6.362,-2.358002 -8.077026,-21.205994 -6.40802,-26.195999c1.153992,-3.450996 3.541016,-7.365997 2.072021,-11.026001c-1.071014,-2.672997 -4.163025,-5.028999 -2.072021,-8.009995c1.630005,1.960999 2.937012,4.901001 3.298004,7.445999c0.623016,4.381996 0.583008,5.240997 4.23999,6.878998c1.585999,0.709999 3.132019,1.095001 4.901001,1.129997c3.578003,0.071007 3.391998,1.245003 3.391998,-3.391998c0,-5.580002 1.917999,-11.392998 -1.883972,-15.266098c-4.688019,-4.776001 -11.859009,-9.304001 -18.282013,-11.307999c-4.257996,-1.328003 -8.588013,-0.861 -12.815002,-1.696999c-2.083008,-0.412003 -3.619995,1.254997 -3.864014,-1.413002c-0.227997,-2.492004 -1.690979,-4.356003 -3.108978,-6.313004c-1.328003,-1.833 -10.519012,-14.520996 -2.639008,-13.004997c4.815002,0.927002 0.447998,6.851997 2.450989,7.726997c1.325012,0.579002 3.391998,-3.496994 3.391998,-4.334c0,-2.404999 -2.234985,-4.056999 -3.958984,-5.463997c-3.006012,-2.455002 -6.044006,-2.784 -10.73999,-3.582001c1.888977,-3.204002 6.174988,-2.667 8.47998,-5.466c-5.958008,-4.434002 -13.345978,3.371998 -15.454987,8.292999c-2.362,5.51199 -1.152008,12.743 -3.391998,18.46899c-2.686005,6.87001 -7.567017,14.111 -12.439011,19.601112c7.481003,-0.593002 11.298996,0.961998 13.945999,-6.313103c1.371002,-3.764999 2.730011,-8.586998 4.899994,-11.96801c2.351013,-3.661987 4.381012,-4.507988 4.994019,-9.422989c0.411987,-3.299011 1.395996,-5.372009 1.979004,-8.104012c0.559998,0.000999 1.047974,0.114014 1.506989,0.188011c-3.437012,7.826988 2.30899,11.798988 5.842987,17.999001c3.151001,5.528999 -4.618988,5.496002 -8.47998,7.820999c-3.171021,1.909988 -6.472015,5.273003 -8.292999,8.481102c4.837982,-0.440102 9.674988,-0.880112 14.513,-1.320099c-0.710022,-0.775002 -0.841003,-1.857002 -1.507996,-2.637001c4.597992,-0.333 11.148987,-3.940002 15.642975,-2.452003c7.552002,2.500992 1.071014,4.133003 -1.931,5.084c-3.047974,0.965004 -7.627991,3.300102 -10.509003,2.8321c-0.882996,-0.143997 -1.228973,-2.87011 -1.97998,-2.801109c-4.38501,0.39901 -8.769012,0.797012 -13.152008,1.196114c-2.541992,0.230988 -3.453003,5.475998 -4.089996,7.635986c-1.656006,5.62001 -3.627991,10.733002 -5.937988,16.114014c-2.469025,5.753998 -0.649017,7.246994 3.109985,11.212997c2.289001,2.414993 4.411011,7.979004 7.914001,6.973999c2.722992,-0.781998 2.467987,-4.927002 5.088989,-5.089005c0.213013,-0.280991 0.245026,-6.272995 2.263,-3.957001c0.843018,0.96701 0.536011,4.522003 2.262024,6.784012c2.894989,3.794998 9.750977,7.668991 9.987976,12.437988c-5.937988,-4.804993 -16.815979,4.462006 -21.507996,7.980011c-8.60199,6.450989 -13.950989,14.931992 -18.541,24.530991c-7.395996,15.470001 -13.344986,32.13501 -19.505997,48.153c-3.141998,8.167007 -5.882996,16.667999 -9.800995,24.501007c-2.076996,4.152008 -4.393997,8.233002 -7.042007,12.041992c-1.276993,1.835999 -4.649994,1.223999 -2.853989,3.787994c4.300995,6.140015 13.131989,2.667999 18.940994,2.640015c3.085999,-0.015015 8.507004,1.464996 10.554993,-1.602997c0.063004,-0.093994 0.126007,-0.188019 0.188004,-0.282013c1.740997,1.130005 2.697006,0.233002 3.20401,-1.696991c0.313995,0.251984 0.627991,0.502991 0.941986,0.755005c-0.477997,2.197998 3.317001,2.826996 3.770004,5.652985c0.275009,1.723999 -2.285004,6.587006 -4.145996,6.973999c2.294006,3.854004 13.41301,18.730011 19.034012,14.700012c0.789978,3.380005 11.326996,3.17099 14.323975,0.941986c3.759003,-2.794983 2.368011,-7.347992 7.350006,-8.292999c2.820007,-0.535004 5.739014,1.263 9.046021,2.449005c6.572998,2.358002 13.026001,6.408997 19.883972,6.408997c5.375,0 3.216003,-2.277985 3.109009,-6.218994c-0.049988,-1.845001 0.955017,-8.072998 2.640015,-4.712006c2.450989,0.529022 19.362,8.243011 12.25,-0.188995c5.312988,-2.825989 12.515991,1.373993 12.061005,-5.84201c-0.303009,-4.807983 -3.813019,-12.880981 4.240997,-7.539001c2.871979,1.904022 2.260986,3.683014 6.125,3.77002c1.328003,0.029999 8.569,-1.852997 8.764984,-2.639008c0.64502,-2.585999 -4.097992,-6.220001 0.848999,-6.220001c4.002991,0.002014 4.872009,-1.31601 3.015015,-5.087006" id="svg_90" fill="black"/>
    <path d="m298.625,90.723862c-4.167999,1.138 -10.313995,3.191002 -14.510986,3.392006c-3.202026,0.153 -3.580017,0.465996 -1.132019,-1.884995c2.748993,-2.639 14.096008,-3.81601 15.643005,-1.507011" id="svg_89"/>
    <path d="m363.270996,201.382996c0.104004,0.664001 0.231995,1.488007 0,0" id="svg_88"/>
    <path d="m361.761993,191.207001c0.066986,0.270004 0.576996,1.044006 0.188995,1.694992c0.072021,-0.469986 -0.149994,-1.538986 -0.188995,-1.694992" id="svg_87"/>
    <path d="m359.312012,196.860992c0.536987,4.291992 1.316986,8.487991 0.755005,12.815002c-0.582031,-4.052994 -2.150024,-8.821991 -0.755005,-12.815002" id="svg_86"/>
    <path d="m357.427002,173.490005c-0.126007,-0.942001 -0.251007,-1.884003 -0.377014,-2.826996c0.126007,0.942993 0.251007,1.884995 0.377014,2.826996" id="svg_85"/>
    <path d="m323.126007,150.496994c-0.826996,-0.205994 -0.826996,-0.205994 0,0" id="svg_84"/>
    <path d="m298.625,147.858994c3.473999,-0.486008 6.066986,0.270996 7.537994,-2.074005c0.502014,-0.800003 -2.984009,-2.972 -0.187988,-3.673996c1.406006,-0.352997 4.417999,-0.417999 5.84198,0.095001c-0.972992,0.774994 -7.653992,1.621002 -3.957001,3.769989c2.180023,1.267014 4.900024,-1.194 7.35202,-1.506989c-1.623016,2.873993 -8.113007,2.806 -5.653992,6.783997c-1.720001,-5.589996 -10.266022,1.258011 -10.933014,-3.393997" id="svg_83"/>
    <path d="m288.450012,162.936996c0.477997,-3.281998 2.117004,-4.513992 4.520996,-6.595993c-0.117004,0.10199 5.753998,-5.395004 4.335999,-1.697006c-0.695984,1.81601 -4.286011,2.561005 -5.653992,4.617996c-1.006012,1.513 -2.619019,3.070007 -3.769012,4.240005c-0.484009,0.477997 0.447998,-0.436996 0.56601,-0.565002" id="svg_82" fill="black"/>
    <path d="m282.605988,171.417999c0.687988,-1.699005 0.897003,-3.925003 2.826996,-4.524002c1.757019,2.186996 0.528992,3.735001 -0.940979,5.936996c-2.337006,3.496002 -4.394012,1.123001 -1.886017,-1.412994" id="svg_81"/>
    <path d="m303.148987,177.636993c-8.403992,15.350998 -18.342987,29.466003 -27.863007,44.115005c-4.543976,6.98999 -8.664001,14.177002 -12.531982,21.561005c-1.834015,3.500992 -3.096008,11.619995 -7.098007,12.160995c7.274002,-17.856003 14.755997,-32.589005 25.442001,-48.436996c4.726013,-7.007004 8.549988,-13.403 13.191986,-20.542007c2.387024,-3.669998 4.563019,-7.139999 6.409027,-11.119995c1.93399,-4.171005 1.859985,-9.554993 4.333984,-13.570007c0.983002,5.64801 -1.721985,10.740005 -1.884003,15.832001" id="svg_80" fill="black"/>
    <path d="m306.541992,156.528c1.957001,-3.408997 5.997009,7.884003 6.40799,9.988007c0.920013,4.703995 0.451996,9.876999 -0.753998,14.134995c-0.891998,-8.007996 -2.474976,-16.604004 -5.653992,-24.123001" id="svg_79"/>
    <path d="m314.458008,201.759995c-1.097992,3.181992 -2.595001,6.187988 -3.582001,9.423996c0.248016,-10.186005 4.506012,-20.186005 5.937988,-30.247986c1.361023,-9.570999 0.120026,-18.172012 -1.978973,-27.611008c5.333984,2.224991 4.79599,11.956009 4.993988,16.490997c0.477997,10.942001 -1.89801,21.650009 -5.371002,31.944" id="svg_78"/>
    <path d="m320.299011,237.190994c1.065002,-11.900009 5.71701,-22.850006 6.40799,-34.865005c0.610016,-10.606003 0.111023,-21.729004 1.697021,-32.227997c3.227966,23.238007 0.261963,45.227005 -8.105011,67.093002" id="svg_77"/>
    <path d="m326.143005,167.270996c0.360016,-0.252991 0.014008,-0.802002 0.942017,-0.565002c0.141968,1.029999 -0.438019,0.211014 -0.942017,0.565002" id="svg_76"/>
    <path d="m338.20401,206.850006c-1.825012,13.380005 -1.140015,28.182007 -6.028992,40.897003c3.5,-29.216003 9.54599,-66.287003 -5.08902,-93.480011c13.722992,15.100006 11.778992,33.492004 11.118011,52.583008" id="svg_75"/>
    <path d="m350.07901,182.725998c-1.76001,-10.705994 -5.790985,-20.408005 -13.946991,-27.705002c-0.977997,2.174011 0.533997,4 1.130005,6.219009c-3.298004,-4.375 -7.301025,-8.257004 -11.873016,-11.307999c7.330017,-4.963013 17.243988,10.245987 20.544006,15.266998c6.376984,9.702988 5.742004,20.429001 6.596008,31.662994c-1.23703,-4.507996 -0.654022,-10.050003 -2.450012,-14.136002" id="svg_74"/>
    <path d="m352.714996,197.613007c-0.044006,0.610001 -0.01001,1.53801 -0.187988,1.88501c-0.046997,-0.350021 0.186981,-1.877014 0.187988,-1.88501" id="svg_73"/>
    <path d="m352.906006,218.723007c-0.687988,-6.203995 -0.377991,-12.604996 -0.377991,-18.847c0.429993,5.414993 2.980988,13.87999 0.377991,18.847" id="svg_72"/>
    <path d="m339.52301,150.875c-2.247986,-1.408997 -4.447998,-2.889999 -6.783997,-4.147003c7.966003,3.083008 14.303986,6.37001 17.938995,14.673004c4.746002,10.837006 10.442993,26.229004 4.864014,37.533005c-0.972015,-6.917007 0.086975,-14.025009 -1.130005,-20.919006c-1.894012,-10.738007 -7.90802,-19.162003 -14.889008,-27.139999" id="svg_71"/>
    <path d="m361.385986,272.625c0.450012,1.110992 0.29599,2.289001 0.942017,3.393005c-7.024017,0.811981 -7.922028,0.181 -6.126007,-6.975006c1.346008,-5.363007 1.622009,-11.506989 1.931,-17.024002c0.292999,-5.244003 -0.618011,-14.138 1.93399,-18.595993c-0.720001,6.110001 -2.436981,18.263992 0.563995,23.747986c1.869019,-7.534988 0.975006,-15.853989 1.787018,-23.572983c1.063995,-10.110001 2.036987,-20.573013 0.852997,-30.705002c2.165009,14.716995 2.259979,29.23999 2.259979,44.08699c0,2.507004 2.278015,20.483017 1.037018,21.310989c-2.143982,1.429016 -5.132996,1.387024 -5.182007,4.334015" id="svg_70" fill="black"/>
    <path d="m191.011002,108.815857c1.291,0.847 7.009995,2.271004 5.841995,-1.506996c-0.636002,-2.058998 -6.571991,-1.751999 -5.841995,1.506996" id="svg_69" fill-rule="evenodd"/>
    <path d="m250.944,104.512001c-6.901993,-3.865997 -10.895004,-2.580002 -19.123001,-1.894005c-11.341995,0.946007 -22.684006,1.891006 -34.024994,2.836006c3.679001,7.822998 -11.094009,7.569 -8.669006,0.752998c-4.585999,0.376999 -9.171997,0.753998 -13.757996,1.131996c0.483002,1.506004 1.378998,2.955002 2.449997,3.957001c-0.557007,-0.324997 -1.261002,-0.502998 -1.884995,-0.942001c2.42099,3.085007 4.404999,6.409004 5.276001,10.178001c0.886993,3.837006 1.304001,8.733002 0.564987,12.628006c-0.957001,5.047989 -2.118988,3.537994 -6.406998,5.276993c-17.287994,7.01001 -20.569992,29.268005 -18.580002,45.689011c2.361008,19.487 4.033005,39.113998 7.682999,58.421997c1.778,9.403992 3.255005,18.848999 5.229004,28.220001c0.37001,1.756989 7.781998,3.875 10.567001,3.36499c-0.091003,-1.302002 0.195999,-0.703003 0.378006,-1.507996c2.964996,10.320007 4.608994,20.447998 9.031998,30.404999c3.076996,6.929993 4.929993,14.375 4.725998,21.988007c-5.110001,-0.966003 -16.386993,-4.627991 -20.167007,-1.037018c-7.104996,6.75 -14.240997,13.458008 -21.29599,20.261017c-6.445007,6.214996 -12.904007,12.410004 -19.318008,18.65799c-3.388992,3.302002 -6.706993,6.673004 -10.082993,9.987c-2.218002,2.178009 -10.079002,7.588013 -7.539001,10.179016c13.25,-11.925018 25.802994,-24.804016 38.574005,-37.247009c6.843002,-6.667999 13.692001,-13.277008 20.792999,-19.670013c3.453003,-3.108002 9.25499,-0.391998 13.608994,0.379028c6.626007,1.173981 6.438004,1.082977 7.122009,7.723999c1.363998,13.257996 2.414993,26.823975 4.244995,39.697998c1.11499,7.846985 3.569,15.048981 5.556,22.685974c0.783005,3.01001 0.324997,8.909027 3.580002,10.177002c2.375,-7.187988 6.296997,-14.03299 5.653992,-21.862c-0.425995,-5.181976 -3.020996,-12.460999 -4.710999,-17.526001c-2.393997,-7.177002 -3.440994,-15.25 -3.908997,-22.776978c-0.324005,-5.212006 1.121002,-9.951996 0.516006,-15.105011c26.278992,5.709015 53.240982,9.703003 79.761978,14.199005c13.017029,2.205994 26.011017,4.529999 39.008026,6.846008c6.567993,1.17099 37.339996,10.214996 40.862,4.774994c-42.657013,-7.240021 -85.251007,-14.856018 -127.873016,-22.303009c-9.237991,-1.613983 -19.35199,-2.419006 -28.365997,-5.024994c-4.457001,-1.287994 -3.938995,-0.752991 -4.145996,-5.464996c-0.177002,-4.02002 0.255005,-7.882019 0.188995,-11.873993c-0.164001,-10.084015 -1.216995,-20.705017 -4.251999,-30.32901c-2.925995,-9.274994 -1.701996,-21.660004 -0.746994,-31.264008c1.703995,-17.127991 6.653,-34.242004 9.332993,-51.298996c2.209,-14.063004 5.192001,-29.796005 1.845001,-43.860001c-0.733994,-3.083008 -4.917999,-5.255997 -5.235992,-8.533005c-0.544006,-5.589996 4.560989,-14.701996 7.315002,-19.432999c3.243988,-5.571999 5.270996,-10.306 7.761993,-15.433998c1.011002,-2.079002 2.779999,-10.905998 4.899002,-4.710999c0.376999,-0.250999 0.755005,-0.502998 1.132004,-0.754997c-1.733002,2.543999 1.857986,3.298996 3.014999,5.277c5.779999,-2.918007 13.366989,4.521996 19.224991,7.160995c4.28801,1.931999 6.785995,4.431999 8.856003,-0.751999c2.260986,-5.657997 4.460999,-11.410011 6.973999,-16.961998c-6.894012,0.545998 -10.878006,-0.053001 -15.641998,4.709999" id="svg_68" clip-rule="evenodd" fill-rule="evenodd" fill="black"/>
    <path d="m186.488007,138.813004c5.403,-1.339996 11.990005,0.317001 15.832001,4.334c-2.850006,-0.322998 -15.924011,-3.35701 -15.832001,-4.334" id="svg_67" clip-rule="evenodd" fill-rule="evenodd"/>
    <path d="m187.996994,173.490005c1.078003,0.501007 2.003998,1.065002 2.449997,1.88501c-6.526001,-1.008011 -11.889999,-13.131012 -14.889999,-17.527008c4.393005,4.311996 9.969009,10.494995 12.440002,15.641998" id="svg_66" clip-rule="evenodd" fill-rule="evenodd"/>
    <path d="m162.175995,179.334c-0.103989,-0.660004 -0.235001,-1.488007 0,0" id="svg_65" clip-rule="evenodd" fill-rule="evenodd"/>
    <path d="m170.091995,215.518997c-1.194,-5.276993 -2.386993,-10.554001 -3.580994,-15.830994c3.903,11.082001 6.744003,22.507004 11.307983,33.358994c-3.531982,-5.276001 -5.421982,-11.664993 -7.72699,-17.528" id="svg_64" clip-rule="evenodd" fill-rule="evenodd"/>
    <path d="m171.787994,157.660004c1.009003,-0.827011 7.020996,12.804001 8.479996,15.64299c2.882004,5.604004 8.632004,10.699005 10.932007,16.020004c-8.424011,-4.813995 -14.062012,-17.968002 -16.963013,-26.763c0.911011,11.520004 7.720001,21.072998 15.455002,29.212006c-11.12999,-7.789001 -17.156982,-20.710007 -17.903992,-34.112" id="svg_63" clip-rule="evenodd" fill-rule="evenodd"/>
    <path d="m197.794998,271.493011c-7.492996,0.97699 -7.509995,-0.298004 -5.707993,-7.503998c2.307999,-9.230011 2.605988,-18.818008 4.807999,-28.063004c2.403992,-10.095001 4.194,-20.455994 9.381989,-29.453003c1.305008,2.313995 -1.480988,10.492004 -2.18399,13.479004c-1.347,5.722 -2.540009,11.464005 -3.693008,17.227997c-2.274994,11.360992 -3.261993,22.746994 -2.604996,34.313004" id="svg_62" clip-rule="evenodd" fill-rule="evenodd"/>
    <path d="m208.539001,194.033997c-4.634003,-3.25 -3.742004,-3.979004 0.942001,-7.729004c0.205002,2.672012 -0.587997,5.132004 -0.942001,7.729004" id="svg_61" clip-rule="evenodd" fill-rule="evenodd"/>
    <path d="m210.613007,175.188004c-0.26799,2.321991 -0.063004,4.679001 -0.565994,6.973999c-1.192001,-1.949997 -10.513,-7.775009 -10.740997,-6.785995c0.63298,-2.74501 8.952988,0.515991 11.306992,-0.188004" id="svg_60" clip-rule="evenodd" fill-rule="evenodd"/>
    <path d="m197.608002,118.428864c-2.320007,-0.338005 -4.619995,-0.708 -6.783997,-1.697006c3.822998,-1.606995 16.511993,2.602005 19.222992,5.844002c-4.283997,-0.873001 -8.263992,-2.847 -12.438995,-4.146996" id="svg_59" fill-rule="evenodd"/>
    <path d="m230.401993,108.062859c-0.313995,-0.313995 -0.627991,-0.627998 -0.941986,-0.942001c0.910995,-0.063995 0.597,0.364006 0.941986,0.942001" id="svg_58" fill-rule="evenodd"/>
    <path d="m236.809006,109.947861c-0.028,-0.268997 -0.292007,-0.945 0,-1.32c0,0.440002 0,0.879997 0,1.32" id="svg_57" fill-rule="evenodd"/>
    <path d="m240.201004,111.454857c-0.022003,-0.017998 1.136993,0.962006 0,0" id="svg_56" fill-rule="evenodd"/>
    <path d="m67.566002,266.593994c-1.345001,0.304016 0.382996,-0.087006 0,0" id="svg_55"/>
    <path d="m139.748001,226.639008c0.188004,2.449997 0.375992,4.900009 0.565002,7.350998c-0.251007,0 -0.501007,0 -0.751999,0c0.033997,-2.439011 -0.353012,-5.389008 0.186996,-7.350998" id="svg_54"/>
    <path d="m118.074997,206.662003c0.046005,-1.001007 -0.195,-1.779007 0.377007,-2.262009c0.137993,0.679001 -0.375,2.246002 -0.377007,2.262009" id="svg_53"/>
    <path d="m171.222,103.161858c-0.501999,-2.294998 -0.417007,-18.690994 4.335007,-18.091995c3.136993,0.396011 0.347992,10.207001 0.094986,11.967995c-0.311996,2.170006 -2.019989,9.135002 -0.28299,10.836006c1.936996,1.895996 13.889999,0.218994 15.455002,-3.392006c0.144989,1.191002 0.655991,0.650002 0.187988,2.262001c1.633011,-0.125999 3.267014,-0.250999 4.899002,-0.376999c-1.89299,-2.102997 -1.297989,-2.014 0.567001,-2.071999c0.858002,-0.027 0.875,1.920998 1.419998,1.875999c1.866013,-0.155998 3.73201,-0.311996 5.598999,-0.467003c13.931,-1.160995 27.862,-2.322998 41.792999,-3.484001c-2.362,-2.022995 0.415009,-3.108994 -0.187988,-4.898994c-0.855011,-2.542 -2.035004,-2.065994 -3.959,-3.769005c-5.09201,-4.507996 -8.628006,-11.801994 -12.187012,-17.736984c-2.187988,-3.650009 -4.138,-7.25901 -5.939987,-11.12001c-0.701004,-1.499992 -3.542999,-0.739002 -5.054001,-0.921001c-6.38501,-0.769001 -6.803009,-4.554001 -9.32901,-10.459991c-1.039993,-2.43301 0.812012,-11.448009 2.356003,-13.757999c3.427002,-5.123001 0.632004,-8.694 2.919998,-14.79501c2.875,-7.663 2.570999,-17.887001 -5.371002,-22.427001c-5.062988,-2.894 -10.442001,-1.918 -13.003998,3.204c-1.886002,3.772 0.007004,4.47601 -5.088989,5.74901c-7.651001,1.91099 -12.836014,4.182 -15.45401,11.778991c-1.240997,3.602009 -1.464005,6.36001 -1.130005,10.365009c0.377014,4.521999 -0.397995,5.11599 -2.921997,9.32999c-1.192001,1.991009 2.671997,3.80101 3.203003,5.938c0.423004,1.70401 1.867996,6.64901 2.733002,7.16201c1.563995,0.925999 5.880005,-0.749001 7.539001,-1.130001c1.757996,-0.403999 6.031006,-0.743 6.595993,-1.88501c2.667999,3.07901 3.095001,10.275002 -1.506989,11.496014c-2.207001,0.584984 -3.581009,-2.700012 -6.031006,-0.755013c-1.080994,0.857002 -1.921997,7.048988 -2.731995,8.669998c-1.987,3.979004 -6.466003,4.70401 -8.764008,9.04599c-1.168991,2.210014 -1.623993,4.782013 -2.826996,6.974014c-1.237,2.252998 -4.367996,3.770004 -5.278,5.653999c-0.406998,0.84201 0.688004,2.299011 0.376999,2.827011c-0.759995,1.292999 -1.873001,2.724976 -3.391998,4.051987c-3.60701,3.152 -7.248001,6.262001 -10.931,9.329002c7.852997,-0.628014 15.705994,-1.256004 23.55899,-1.885002c-0.981995,-1.528 -1.731995,-3.267998 -2.261993,-5.092003" id="svg_52" fill="black"/>
    <path d="m196.477997,100.334862c-4.636002,2.199997 -7.658997,-4.769989 -3.203995,-6.972c4.606003,-2.277 8.470993,4.332001 3.203995,6.972" id="svg_51"/>
    <path d="m197.794998,89.968857c-7.25,0.88401 -5.240997,-9.644989 -2.826996,-8.480995c1.278992,0.617012 -3.733002,6.010002 1.319992,6.409012c3.889008,0.306999 1.547012,-4 0.376999,-5.654007c4.96701,-0.008003 4.395004,5.530006 1.130005,7.72599" id="svg_50"/>
    <path d="m192.707993,71.876862c3.69101,9.311005 16.025009,-0.658005 21.484009,-2.639c-1.184006,7.645012 -16.326996,11.131012 -21.861008,6.785995c-3.528,-2.770988 -2.97699,-8.638 0.376999,-4.146996" id="svg_49"/>
    <path d="m119.959,92.230904c-0.648003,-4.274002 -4.155998,-6.398003 -4.710999,-9.801003c-0.045998,-0.283005 1.243996,-2.249001 0.942001,-3.580002c-0.286003,-1.260002 -1.939003,-2.565002 -2.827003,-3.391998c-2.292999,-2.135002 -3.063995,-2.579002 -6.030998,-1.885002c0.780998,-2.566002 4.146996,-5.436996 4.335999,-8.669998c-5.700996,1.613998 -7.100998,9.987999 -12.439003,9.987999c-4.090996,0 -7.538994,2.579002 -7.538994,6.786003c0,5.871994 4.538994,10.491997 4.901001,16.584c0.342995,5.7621 -2.605003,4.244095 -7.539001,6.219101c-4.258003,1.703995 -8.179001,3.949997 -12.25,6.030998c4.838997,0.776001 10.918999,1.666 15.076996,2.449997c-5.033997,-3.969002 11.471001,-4.111 14.135002,-3.205002c-1.164001,2.608002 -3.929001,3.559006 -6.408997,4.524002c7.161995,-0.627998 14.323997,-1.255997 21.486,-1.883995c-4.042,-4.342003 -8.168007,-9.047005 -14.135002,-9.989006c-1.264,-0.198997 -5.744003,0.374001 -6.596001,-0.564995c-0.635002,-0.700005 -0.692001,-7.241104 -1.32,-8.858101c-1.348,-3.472 -7.436005,-11.049004 -2.450005,-14.135002c3.059006,-1.892998 13.540001,9.848 15.830002,13.286003c3.091003,4.642998 6.145004,9.311096 9.235001,13.947098c4.882004,7.321999 8.322006,5.653999 16.772995,4.993996c-6.978989,-5.520996 -12.544991,-12.248093 -18.468994,-18.845093" id="svg_48" fill="black"/>
    <path d="m107.521004,105.423859c-0.548004,1.540001 -18.021004,3.678001 -18.847,2.639c-1.876007,-2.359001 15.853996,-3.632996 18.847,-2.639" id="svg_47"/>
    <path d="m144.837006,113.935997c-1.682999,-0.728996 -3.278,-1.616997 -4.806,-2.639c-3.466995,-2.315994 -9.695999,-0.310997 -13.662994,0c3.817993,4.714005 7.757996,10.020004 12.061005,14.325005c5.048996,5.051003 5.937988,4.782997 10.742996,0.751999c7.880997,-6.612 17.119995,-11.910004 24.313004,-18.847c-10.509018,0.840996 -20.817017,-0.764 -28.64801,6.408997" id="svg_46"/>
    <path d="m176.5,92.230873c0.945007,-4.705009 -0.673004,-10.268005 -3.770004,-3.298012c-2.552002,5.744995 -3.123001,13.917999 0.755005,19.129997c-0.208008,-4.613998 -3.164993,-12.511986 0.751999,-16.96199c2.925003,-3.324005 1.483002,2.759995 1.132004,4.521996c-0.626999,3.145004 -3.117004,10.922997 0,12.439995c-0.998001,-4.796997 -0.209,-10.957985 1.130997,-15.831985" id="svg_45" fill-rule="evenodd"/>
    <path d="m175.369003,107.872864c-1.30101,1.233994 0.246002,3.547997 2.449997,4.146996c-1.147995,-1.073997 -1.986008,-2.553001 -2.449997,-4.146996" id="svg_44"/>
    <path d="m355.541992,198.934006c5.57901,-11.302994 -0.118011,-26.695999 -4.864014,-37.533005c-3.635986,-8.302994 -9.973999,-11.590988 -17.938995,-14.673004c7.695007,4.139999 13.46701,10.584 17.244995,18.565002c5.358032,11.320999 3.896027,21.811005 5.558014,33.641006" id="svg_43" fill="#D1C5BE"/>
    <path d="m193.651001,77.153862c5.738998,2.392006 19.436005,-0.765999 20.541992,-7.916c-5.704987,2.07 -13.084991,9.312012 -19.128998,5.278c-1.251999,-0.834999 -4.442001,-6.008995 -5.937988,-3.769005c-1.272003,1.907005 3.441986,5.549011 4.524994,6.407005" id="svg_42" fill-rule="evenodd" fill="#d1c5be"/>
    <path d="m196.666,82.054863c1.529007,2.514 1.386002,9.208 -2.261993,5.087006c-0.123001,-0.139 0.316986,-10.349007 -1.88501,-3.770012c-0.966003,2.887016 1.62001,7.707016 5.276001,6.596001c4.529999,-1.374001 2.641998,-7.565994 -1.128998,-7.912994" id="svg_41" fill-rule="evenodd" fill="#d1c5be"/>
    <path d="m288.826996,89.593857c-1.57901,0.716011 -8.862,3.097 -7.350983,4.712006c1.056976,1.129005 14.75,-3.021996 17.148987,-3.39399c0,-0.250999 0,-0.500999 0,-0.752007c-3.209015,-0.876999 -6.837006,0.279007 -9.798004,-0.56601" id="svg_40" fill-rule="evenodd" fill="#d1c5be"/>
    <path d="m194.781006,92.985863c-4.819,0.451004 -4.881012,7.727997 0,7.916c5.524994,0.212997 5.610001,-7.07 0,-7.916" id="svg_39" fill="#d1c5be"/>
    <path d="m197.231003,98.639862c-3.783005,0.781006 -6.210999,-2.435005 -3.014999,-4.712006c2.121994,1.12001 5.386993,2.24601 3.014999,4.712006" id="svg_38" fill="#d1c5be"/>
    <path d="m194.216003,93.927856c-6.787003,4.836006 11.257004,5.94001 0,0" id="svg_37" fill-rule="evenodd"/>
    <path d="m190.824005,104.293861c-0.692001,0.757996 -1.162003,1.786995 -1.697006,2.638c2.279007,-0.172005 2.888,-1.098 1.697006,-2.638" id="svg_36" fill-rule="evenodd" fill="#d1c5be"/>
    <path d="m196.852997,107.497864c-0.432999,3.937996 -6.888992,2.803993 -5.841995,-0.755005c-4.903,-0.001999 -0.298996,6.322998 3.770004,5.466003c3.623993,-0.763 5.194992,-6.681999 1.12999,-5.844002c0.556,0.254997 0.756012,0.603996 0.942001,1.133003" id="svg_35" fill="#d1c5be"/>
    <path d="m194.968002,103.728859c-0.483002,1.931999 0.617996,2.884003 2.826996,2.450005c-0.490997,-1.671005 -1.403992,-2.077003 -2.826996,-2.450005" id="svg_34" fill-rule="evenodd" fill="#d1c5be"/>
    <path d="m89.238998,108.815857c3.492004,-1.324997 7.577003,-1.883995 11.307999,-1.883995c2.600006,0 11.132004,-1.526001 4.052002,-2.167c-2.782997,-0.250999 -19.163002,0.386002 -15.360001,4.050995" id="svg_33" fill="#d1c5be"/>
    <path d="m230.401993,108.062859c-0.344986,-0.577995 -0.030991,-1.005997 -0.941986,-0.942001c0.313995,0.314003 0.626999,0.628006 0.941986,0.942001" id="svg_32" fill-rule="evenodd" fill="#d1c5be"/>
    <path d="m236.431,109.947861c0.087997,-0.264999 0.626999,-0.706001 0.188995,-1.32c0.085007,0.452995 -0.138992,1.169998 -0.188995,1.32" id="svg_31" fill="#d1c5be"/>
    <path d="m240.201004,111.454857c1.136993,0.962006 -0.022003,-0.017998 0,0" id="svg_30" fill="#d1c5be"/>
    <path d="m191.389008,115.254997c-0.188004,1.434006 15.742004,6.002007 18.656998,6.596001c-3.466003,-4.145996 -13.733002,-5.612999 -18.656998,-6.596001" id="svg_29" fill="#D1C5BE"/>
    <path d="m186.677002,139.944c5.488998,-0.473999 10.296997,2.595993 15.643005,3.203995c-2.362015,-2.470993 -17.018005,-6.964996 -15.643005,-3.203995" id="svg_28" fill="#D1C5BE"/>
    <path d="m309.558014,151.251007c-2.459015,-3.977997 4.031006,-3.910004 5.653992,-6.783997c-2.450989,0.313004 -5.171997,2.774002 -7.35199,1.507004c-3.696991,-2.149002 2.984009,-2.99501 3.957001,-3.770004c-1.71701,-0.617996 -5.994995,-0.606995 -6.972015,0.942001c-1.686981,2.675995 4.058014,2.746994 -1.509003,4.522003c-0.809998,0.257996 -8.556,1.884995 -2.919983,1.884995c3.112976,0.001984 7.856995,-2.479004 9.141998,1.697998" id="svg_27" fill="#D1C5BE" clip-rule="evenodd" fill-rule="evenodd"/>
    <path d="m351.395996,181.970993c0.654999,-8.266998 -4.32901,-15.281998 -8.855988,-21.673004c-2.943024,-4.156006 -11.364014,-14.283997 -17.151001,-10.365997c4.571991,3.050995 8.574982,6.934006 11.872986,11.307999c-0.596008,-2.218994 -2.106995,-4.044998 -1.130005,-6.218994c12.975006,11.607986 12.187012,26.482986 16.396027,41.839996c-0.377014,-4.962997 -0.755005,-9.925995 -1.132019,-14.889999" id="svg_26" fill="#D1C5BE" clip-rule="evenodd" fill-rule="evenodd"/>
    <path d="m293.348999,157.093002c3.098999,-1.166 5.683014,-4.964996 0.94101,-2.826996c-2.265015,1.020996 -5.492004,6.268997 -5.841003,8.669998c1.718994,-1.883011 3.303986,-3.854004 4.899994,-5.843002" id="svg_25" fill="#D1C5BE" clip-rule="evenodd" fill-rule="evenodd"/>
    <path d="m288.450012,162.936996c-0.884003,0.921005 -0.63501,0.662003 0,0" id="svg_24" fill="#D1C5BE" clip-rule="evenodd" fill-rule="evenodd"/>
    <path d="m314.834015,153.324005c2.098999,9.439011 3.339996,18.041 1.979004,27.611008c-1.432007,10.061996 -5.688995,20.062988 -5.938019,30.247986c3.050018,-9.990997 7.011017,-19.065002 8.394012,-29.664993c0.840973,-6.449005 3.423981,-24.680008 -4.434998,-28.194" id="svg_23" fill="#D1C5BE"/>
    <path d="m326.894989,154.266998c7.610016,11.585999 8.67099,28.203003 8.67099,41.557999c0,17.367004 -1.323975,34.666 -3.391998,51.923004c5.438019,-14.141006 5.259003,-31.960999 6.257996,-46.951996c1.063019,-15.931 1.450012,-35.094009 -11.536987,-46.529007" id="svg_22" fill="#D1C5BE" clip-rule="evenodd" fill-rule="evenodd"/>
    <path d="m312.196014,180.651993c1.88501,-6.653 2.790985,-21.485001 -5.464996,-25.253006c-0.423004,3.940002 2.487,10.556 3.674988,14.512009c1.049988,3.5 1.391998,7.174011 1.790009,10.740997" id="svg_21" fill="#D1C5BE"/>
    <path d="m188.561996,187.438004c0.82901,0.68399 1.763,1.259995 2.638,1.884995c-2.201996,-5.095001 -7.789001,-9.740005 -10.492004,-15.139999c-2.894989,-5.785995 -5.406998,-11.807999 -8.542999,-17.464005c-3.36499,12.087006 8.284012,28.585007 17.527008,35.054001c-7.735001,-8.139999 -14.544006,-17.692993 -15.455002,-29.21199c3.065002,9.289993 8.097,17.403 14.324997,24.876999" id="svg_20" fill="#D1C5BE" clip-rule="evenodd" fill-rule="evenodd"/>
    <path d="m190.447006,175.375c-5.145996,-4.468002 -9.524994,-12.261993 -14.889999,-17.526993c3,4.395996 8.362991,16.518997 14.889999,17.526993" id="svg_19" fill="#D1C5BE"/>
    <path d="m304.846008,161.804993c-4.02301,8.561005 -5.290009,16.593002 -10.556,24.690002c-4.643005,7.139008 -8.46701,13.535004 -13.192017,20.542007c-10.686981,15.847992 -18.167999,30.580002 -25.441986,48.436996c4.266998,-0.576996 9.819,-17.330002 12.240997,-21.647003c6.13501,-10.934998 13.477997,-21.134003 20.485992,-31.513c5.360992,-7.940002 13.216003,-17.918991 15.144012,-27.125c0.708984,-3.386002 2.608002,-9.723999 1.319,-13.384003" id="svg_18" fill="#D1C5BE" clip-rule="evenodd" fill-rule="evenodd"/>
    <path d="m326.894989,166.893997c-0.165985,0.012009 -0.381989,-0.578003 -0.752014,0.376999c0.490021,0.057999 1.373016,-0.422989 0.752014,-0.376999" id="svg_17" fill="#D1C5BE" clip-rule="evenodd" fill-rule="evenodd"/>
    <path d="m282.795013,175.375c1.760986,-2.722 4.958984,-5.593002 2.638,-8.481003c-2.034027,0.630997 -4.984009,7.031006 -2.638,8.481003" id="svg_16" fill="#D1C5BE" clip-rule="evenodd" fill-rule="evenodd"/>
    <path d="m326.708008,202.326004c0.248993,12.104996 -5.34201,22.960999 -6.40799,34.865005c8.365997,-21.865997 11.332977,-43.854996 8.10498,-67.093002c-1.610992,10.658997 -0.18399,21.537994 -1.696991,32.227997" id="svg_15" fill="#D1C5BE" clip-rule="evenodd" fill-rule="evenodd"/>
    <path d="m199.492996,176.317001c3.804001,-0.628998 8.598007,2.645004 10.554001,5.843994c0.503006,-2.294998 0.298996,-4.651993 0.56601,-6.973999c-2.925003,0.876007 -11.384003,-3.160995 -11.12001,1.130005" id="svg_14" fill="#D1C5BE" clip-rule="evenodd" fill-rule="evenodd"/>
    <path d="m161.987,179.334c0.104004,-0.660004 0.235001,-1.488007 0,0" id="svg_13" fill="#D1C5BE"/>
    <path d="m205.710999,189.322006c-1.774994,2.171997 1.024002,3.447998 2.826996,4.712006c0.354004,-2.597 1.147003,-5.057999 0.942001,-7.729004c-1.255997,1.005997 -2.511993,2.011993 -3.768997,3.016998" id="svg_12" fill="#D1C5BE"/>
    <path d="m362.139008,191.207001c-0.024994,0.313004 -0.247009,1.285004 0,1.694992c0,-0.564987 0,-1.12999 0,-1.694992" id="svg_11" fill="#D1C5BE"/>
    <path d="m359.312012,196.860992c-1.395996,3.992004 0.173004,8.761993 0.755005,12.815002c0.561981,-4.325989 -0.218018,-8.522995 -0.755005,-12.815002" id="svg_10" fill="#D1C5BE"/>
    <path d="m352.714996,199.498001c-0.044006,-0.610001 -0.01001,-1.537994 -0.187988,-1.884995c-0.046997,0.349991 0.186981,1.876999 0.187988,1.884995" id="svg_9" fill="#D1C5BE" clip-rule="evenodd" fill-rule="evenodd"/>
    <path d="m170.091995,215.518997c2.305008,5.863007 4.195007,12.251999 7.727005,17.528c-4.563004,-10.852997 -7.404999,-22.276993 -11.307999,-33.358994c1.194,5.276993 2.386993,10.552994 3.580994,15.830994" id="svg_8" fill="#D1C5BE"/>
    <path d="m352.906006,218.723007c2.604004,-4.966995 0.053009,-13.431992 -0.377991,-18.847c0,6.240997 -0.311005,12.64299 0.377991,18.847" id="svg_7" fill="#D1C5BE" clip-rule="evenodd" fill-rule="evenodd"/>
    <path d="m363.458008,201.382996c-0.102997,0.664001 -0.231995,1.488007 0,0" id="svg_6" fill="#D1C5BE"/>
    <path d="m361.761993,239.830994c-0.226013,5.737 0.264008,11.720001 -1.131012,17.339996c-3.000977,-5.483994 -1.283997,-17.638 -0.563995,-23.748001c-2.463989,4.305008 -1.544006,12.656998 -1.88501,17.716003c-0.392975,5.831985 -0.554993,12.227005 -1.978973,17.904007c-1.796021,7.154999 -0.89801,7.78598 6.125977,6.974976c-2.128998,-3.510986 -0.009003,-4.270996 1.695007,-6.596985c1.601013,-2.184998 3.045013,0.53299 2.562988,-3.575012c-0.508972,-4.328003 -0.802979,-8.64798 -0.932983,-13.00499c-0.498993,-16.796997 0.071991,-33.259995 -2.382996,-49.947998c1.356995,11.60701 0.729004,25.735016 -1.509003,36.938004" id="svg_5" fill="#D1C5BE"/>
    <path d="m118.074997,204.399994c0.046005,1.000992 -0.195,1.778992 0.377007,2.261993c0.137993,-0.678986 -0.375,-2.24498 -0.377007,-2.261993" id="svg_4" fill="#D1C5BE"/>
    <path d="m202.130997,216.085007c-1.218994,6.66301 -3.852997,14.029999 -5.559998,21.201996c-1.431,6.006012 -1.949997,12.314011 -2.820999,18.427002c-0.449005,3.147995 -4.811996,13.031998 -2.927002,15.591995c1.434006,1.947021 7.003006,0.729004 6.874008,-1.522003c-0.436005,-7.669983 0.162994,-15.151993 1.033997,-22.774994c0.80899,-7.074997 2.431992,-14.171997 3.964996,-21.123993c0.931,-4.218994 5.481995,-16.037003 3.580002,-19.410995c-1.755005,3.042984 -2.785995,6.372986 -4.145004,9.610992" id="svg_3" fill="#D1C5BE"/>
    <path d="m139.561005,233.988998c1.220993,-1.287994 0.503998,-4.854004 0.376999,-7.350998c-0.942001,2.315994 -0.343002,4.865005 -0.376999,7.350998" id="svg_2" fill="#D1C5BE"/>
    <path d="m67.566002,266.593994c0.382996,-0.087006 -1.345001,0.304016 0,0" id="svg_1" fill="#D1C5BE" clip-rule="evenodd" fill-rule="evenodd"/>
   </g>
  </symbol>
  <linearGradient y2="0.220619" x2="0.880599" y1="1.003577" x1="0.028419" id="svg_95" xlink:href="#linearGradient3868"/>
 </defs>
 <metadata id="metadata4066">image/svg+xmlBlack bag for shopping. Bolsa negra de compras.20 de septiembre del 2011Alex PuenteAlex PuenteAlex Puentees-MXshoppingmallbagblackcomprastiendasbolsanegraBlack bag for shopping. Bolsa negra de compras.Alex Puente</metadata>
 <g>
  <title>Layer 1</title>
  <g externalResourcesRequired="false" id="layer1">
   <g externalResourcesRequired="false" id="g3149">
    <path fill="none" stroke="url(#linearGradient3147)" stroke-width="4.872161" stroke-linecap="round" stroke-miterlimit="4" id="path3858" d="m90.368721,149.415802c-7.466911,-27.489052 26.866692,-31.341881 18.701622,-2.737991"/>
    <path fill="url(#linearGradient3144)" stroke="#d38d5f" stroke-width="0" stroke-miterlimit="4" d="m49.327816,140.982178c0,0 39.075626,0.197845 54.645115,-1.082077c15.569824,-1.279892 38.771759,-6.597366 38.771759,-6.597366l-0.137863,2.210052l10.312363,0.038239l-46.531197,9.693863l-55.413261,2.03627l-1.646915,-6.298981z" id="rect3832"/>
    <path fill="url(#linearGradient3141)" d="m49.297089,140.9767l11.947483,1.686523l-1.033463,2.494232l4.518307,26.80809l-1.999622,28.966797c1.858028,1.369537 -3.555645,2.036255 -4.784554,2.907394l-8.945244,2.112778c4.177284,-7.065186 3.315914,-19.460953 3.293835,-29.683807c0,-7.466293 -2.996742,-35.292007 -2.996742,-35.292007z" id="rect3776"/>
    <path fill="#b3b3b3" d="m61.250996,142.657761l0.096035,2.28656l-1.528458,-0.056839l1.432423,-2.229721z" id="path3188"/>
    <path fill="url(#linearGradient3137)" d="m59.842636,210.987976l-5.488667,-2.422104l-5.295094,-2.617737l9.0574,-2.34668l4.131027,-2.364182l-0.439861,5.30545l-1.964806,4.445251z" id="path3774"/>
    <path fill="url(#linearGradient3134)" stroke="#d38d5f" stroke-width="0" stroke-miterlimit="4" d="m142.603333,135.452667l-0.070084,2.21553l10.60675,-2.247223l-10.536667,0.031693z" id="path3150"/>
    <path fill="url(#radialGradient3131)" d="m59.809109,144.85907c0,0 29.878513,0.440475 45.430119,-1.134537c15.551247,-1.575043 47.879745,-8.3134 47.879745,-8.3134c0,0 -2.641479,20.462128 -3.028168,30.477325c-0.387878,10.015182 0.704468,29.613831 0.704468,29.613831l2.3237,6.048691l-93.309864,9.44902l1.936184,-4.518494c0,0 1.789795,-17.755829 1.466999,-28.025696c-0.322678,-10.27095 -3.403183,-33.596741 -3.403183,-33.596741z" id="rect2985"/>
    <path fill="none" stroke="url(#svg_95)" stroke-width="5" stroke-linecap="round" stroke-miterlimit="4" d="m95.816971,149.14473c-7.662949,-28.210419 27.571754,-32.162727 19.191711,-2.809021" id="path3853"/>
   </g>
  </g>
  <use x="0" y="0" transform="matrix(0.876208 0 0 0.690412 18.4332 76.1738)" xlink:href="#svg_93" id="svg_94"/>
 </g>
</svg>
